PathFileType  4	(X/Y/Z) C:\Users\antoi\Documents\MyRepositories\mobilecap\ResultsAnalysis
DataRate	CameraRate	NumFrames	NumMarkers	Units	OrigDataRate	OrigDataStartFrame	OrigNumFrames
100.0	100.0	6	51	mm	100.0	50	131
Frame#	Time	r_knee			r_shank_antsup			r_ankle			r_calc			r_5meta			r_toe			L_knee			L_shank_antsup			L_ankle			L_calc			L_5meta			L_toe			r_sh2			r_sh3			r_sh4			L_sh2			L_sh3			r_thigh1			r_thigh2			r_thigh3			r_thigh4			r_thigh5			L_thigh1			L_thigh2			L_thigh3			L_thigh4			r.ASIS			r.PSIS			L.ASIS			L.PSIS			C7			R_Shoulder			L_Shoulder			R_Sternum			L_Sternum			R_humerus			R_elbow_med			R_elbow_lat			R_forearm			R_wrist_radius			R_wrist_ulna			L_humerus			L_elbow_med			L_elbow_lat			L_forearm			L_wrist_radius			L_wrist_ulna			R_HJC			L_HJC			R_HJC_reg			L_HJC_reg			
		X1	Y1	Z1	X2	Y2	Z2	X3	Y3	Z3	X4	Y4	Z4	X5	Y5	Z5	X6	Y6	Z6	X7	Y7	Z7	X8	Y8	Z8	X9	Y9	Z9	X10	Y10	Z10	X11	Y11	Z11	X12	Y12	Z12	X13	Y13	Z13	X14	Y14	Z14	X15	Y15	Z15	X16	Y16	Z16	X17	Y17	Z17	X18	Y18	Z18	X19	Y19	Z19	X20	Y20	Z20	X21	Y21	Z21	X22	Y22	Z22	X23	Y23	Z23	X24	Y24	Z24	X25	Y25	Z25	X26	Y26	Z26	X27	Y27	Z27	X28	Y28	Z28	X29	Y29	Z29	X30	Y30	Z30	X31	Y31	Z31	X32	Y32	Z32	X33	Y33	Z33	X34	Y34	Z34	X35	Y35	Z35	X36	Y36	Z36	X37	Y37	Z37	X38	Y38	Z38	X39	Y39	Z39	X40	Y40	Z40	X41	Y41	Z41	X42	Y42	Z42	X43	Y43	Z43	X44	Y44	Z44	X45	Y45	Z45	X46	Y46	Z46	X47	Y47	Z47	X48	Y48	Z48	X49	Y49	Z49	X50	Y50	Z50	X51	Y51	Z51	

50	0.49000000	293.51449	482.88807	-78.11025	313.53075	414.94192	-84.25352	202.92796	99.30440	-118.34082	143.39067	76.26549	-157.73795	305.53158	41.48344	-93.96833	349.33146	55.02699	-148.22537	608.68553	491.99590	-329.61869	664.14624	421.70148	-312.92591	662.15031	111.49202	-318.20431	611.67225	60.16988	-278.69323	775.95326	85.07316	-338.87806	815.22397	119.39989	-283.09459	279.58542	308.10174	-81.12163	244.06802	436.89553	-57.59758	199.19548	329.49129	-62.36034	588.29319	423.68531	-362.30456	603.72624	302.11406	-368.57608	404.34431	709.23393	-21.53271	378.17421	601.35465	-45.78021	313.47937	595.52955	-46.71124	292.88441	732.33906	-27.94618	267.49019	627.70217	-66.89518	519.85759	753.72221	-377.59294	587.72434	634.26049	-353.35057	423.10913	699.76551	-383.86797	484.83275	584.37779	-338.86789	487.39483	915.60163	-80.45766	279.88841	945.39253	-172.51472	500.17497	915.49100	-302.30701	287.56227	939.05550	-253.40496	380.69376	1388.19568	-181.26353	435.64283	1353.91170	-44.36665	411.25716	1361.81633	-321.44123	504.83903	1318.95235	-165.76237	500.80282	1320.56438	-207.09749	486.96231	1252.38443	9.04908	467.16730	1028.64950	17.25107	510.48937	1052.44778	61.35261	600.62206	1022.21850	43.74963	704.08392	926.95685	6.13679	688.54633	908.09728	37.02187	395.15951	1263.91972	-396.79504	326.61709	1046.86120	-376.15513	341.71199	1068.20735	-438.10597	394.13897	979.05259	-470.20345	426.60650	855.77281	-479.58556	390.04385	851.81047	-498.13577	404.12585	828.44810	-93.46172	419.95297	828.44426	-300.36666	413.29704	855.34314	-113.06289	427.10641	843.93948	-258.62907	
51	0.50000000	299.57781	483.34922	-78.76495	318.69052	414.97303	-84.57682	203.74380	100.66528	-118.76454	144.17756	78.06328	-158.31813	305.59754	41.56145	-94.06918	349.63181	54.54448	-148.27060	618.12776	488.15876	-328.98276	676.93287	421.95227	-311.13207	692.79702	111.73630	-319.08222	644.43666	57.25971	-281.06885	808.34404	91.26532	-337.29682	844.78693	127.06527	-280.52946	283.14470	308.65078	-81.41786	249.41464	437.97892	-58.43025	203.08057	331.18443	-63.21668	602.25887	420.36854	-362.37122	624.52100	299.73649	-369.55580	413.37578	708.12072	-21.72578	385.73737	600.67064	-45.98015	321.16397	595.87657	-47.46357	302.05993	732.99685	-29.02936	275.67025	628.51626	-67.96972	532.31045	750.72270	-377.16483	597.94091	630.11862	-352.76294	434.79372	698.27607	-384.91302	494.29666	581.81296	-340.23079	499.14608	913.65693	-80.77586	292.27244	943.51625	-173.52056	513.03091	913.78401	-302.57417	300.23833	937.04288	-254.36303	392.47419	1386.17661	-181.79510	447.61356	1352.13583	-45.08235	422.79228	1359.81619	-321.95382	516.81245	1316.97923	-166.40006	512.75273	1318.68988	-207.76092	500.06481	1251.27625	8.09543	482.73352	1027.50476	16.85946	526.19433	1051.73186	60.52325	616.72696	1023.05421	41.90737	721.59765	929.87168	2.90388	706.87396	910.69725	33.81769	406.07897	1262.11089	-397.35691	336.96397	1045.20557	-376.49466	351.51736	1066.66574	-438.51511	403.24223	977.39172	-471.39600	435.60485	854.38380	-481.45180	398.30125	850.15539	-499.46566	416.16449	826.48142	-94.12226	432.81739	826.65771	-300.96137	425.27561	853.72702	-113.55018	439.61303	842.07610	-259.05654	
52	0.51000000	306.55381	483.56627	-79.46172	324.74207	414.70627	-84.95593	204.67692	102.13831	-119.13725	145.03433	80.06256	-158.83213	305.72508	41.62922	-94.16928	350.01266	54.04328	-148.30997	627.67623	484.56883	-328.42092	689.03958	422.10931	-309.42538	720.19983	112.58906	-319.88697	673.91992	55.26307	-283.18924	837.05548	97.20429	-335.86334	871.03217	134.06274	-278.21890	287.40021	308.99717	-81.75152	255.75888	438.90282	-59.22515	207.82594	332.79197	-63.99076	615.64190	417.62401	-362.39213	643.72905	298.10839	-370.46299	422.95461	706.93827	-21.97151	394.06680	599.86154	-46.21344	329.64406	595.96853	-48.23992	311.87139	733.35188	-30.15110	284.57839	629.02152	-69.04854	544.90066	747.75260	-376.88847	608.32729	626.09594	-352.27134	446.66272	696.81353	-385.91388	504.09372	579.32557	-341.35113	511.03779	911.69169	-81.11510	304.77042	941.60631	-174.65831	526.00594	911.97810	-302.85543	313.03831	935.04346	-255.47396	404.33915	1384.13178	-182.45304	459.61812	1350.31487	-45.87400	434.39929	1357.76252	-322.58971	528.86676	1314.99267	-167.12879	524.79961	1316.80718	-208.51834	513.11410	1250.06486	7.03778	497.87050	1026.35566	16.43404	541.63140	1050.93197	59.59388	632.44208	1023.68154	40.05736	738.62219	932.47662	-0.24178	724.64466	913.00338	30.73306	417.18309	1260.19087	-398.01092	347.58834	1043.41476	-377.00659	361.68748	1064.98678	-439.03995	412.74587	975.61592	-472.65376	444.87943	852.73300	-483.26126	407.02773	848.39363	-500.88186	428.26917	824.50650	-94.83233	445.81103	824.80099	-301.59637	437.38931	851.98443	-114.09886	452.26891	840.17328	-259.54663	
53	0.52000000	314.52119	483.51565	-80.15714	331.75505	414.13236	-85.39865	205.78882	103.75744	-119.43195	145.98148	82.33277	-159.24531	305.92827	41.69516	-94.25605	350.49713	53.55652	-148.32177	637.49217	481.39053	-327.90510	700.54742	421.99629	-307.93032	743.84557	113.47110	-320.50417	699.46844	53.75198	-284.82099	861.60789	102.16410	-334.75350	893.66049	139.71252	-276.42603	292.43352	309.14836	-82.11815	263.18809	439.65569	-59.94568	213.46652	334.34707	-64.61426	628.32915	415.31071	-362.34276	661.04290	296.90108	-371.18450	433.11481	705.70743	-22.30782	403.21086	598.93505	-46.49203	338.95960	595.79855	-49.03535	322.32896	733.38018	-31.29586	294.23906	629.19252	-70.12138	557.68021	744.98187	-376.77946	619.03727	622.43077	-351.76864	458.82177	695.43479	-386.86555	514.38902	577.03914	-342.15278	523.08292	909.75955	-81.47399	317.36657	939.71898	-175.95903	539.08977	910.10488	-303.15914	325.95152	933.11875	-256.77404	416.32005	1382.13054	-183.25015	471.67534	1348.50578	-46.73991	446.08627	1355.70447	-323.36329	541.02569	1313.04719	-167.95402	536.94301	1314.95976	-209.37810	526.09946	1248.78544	5.88487	512.61286	1025.18444	15.93353	556.79973	1050.08446	58.55063	647.75083	1024.11420	38.20055	755.13423	934.76169	-3.28596	741.79191	915.01957	27.75933	428.47980	1258.19871	-398.75796	358.50381	1041.51854	-377.69176	372.26041	1063.19297	-439.67017	422.66683	973.74410	-473.96726	454.42801	850.87392	-485.03321	416.21205	846.54587	-502.36587	440.42164	822.58286	-95.60129	458.92369	822.91347	-302.27975	449.63273	850.14840	-114.71831	465.07687	838.27391	-260.11342	
54	0.53000000	323.51028	483.21117	-80.80627	339.75158	413.28173	-85.89859	207.14841	105.56580	-119.61548	147.06301	84.95121	-159.52796	306.21892	41.77045	-94.31575	351.09523	53.11216	-148.29194	647.68853	478.70150	-327.43031	711.58389	421.39405	-306.76622	763.38405	113.81122	-320.79627	720.56288	52.32723	-285.73951	881.68455	105.46860	-334.07422	912.49091	143.41468	-275.33044	298.28427	309.14451	-82.50115	271.73304	440.25619	-60.56125	219.99867	335.90410	-65.04105	640.28067	413.21110	-362.22204	676.24912	295.71614	-371.61663	443.86895	704.46721	-22.76487	413.18101	597.92470	-46.82431	349.10449	595.39286	-49.84326	333.40021	733.10425	-32.44559	304.64725	629.04210	-71.17964	570.69231	742.57139	-376.81157	630.18771	619.31815	-351.14739	471.34361	694.19799	-387.78698	525.26453	575.07347	-342.68402	535.30154	907.92074	-81.85413	330.05558	937.90934	-177.42989	552.27672	908.21903	-303.49944	338.97453	931.32130	-258.27073	428.43504	1380.24486	-184.19126	483.80774	1346.77455	-47.68325	457.86738	1353.69863	-324.28211	553.30668	1311.20167	-168.88226	549.18303	1313.19719	-210.34729	539.01919	1247.48516	4.64722	527.00952	1023.98426	15.30773	571.68303	1049.22650	57.38345	662.63516	1024.37315	36.33786	771.09300	936.71908	-6.21452	758.25328	916.74686	24.89230	439.97033	1256.19184	-399.59903	369.72819	1039.56348	-378.53823	383.25699	1061.33075	-440.39698	433.01497	971.81385	-475.32082	464.25361	848.88636	-486.77716	425.83421	844.65189	-503.89139	452.63046	820.76998	-96.43442	472.15353	821.04815	-303.01725	462.01043	848.27400	-115.41258	478.04527	836.42818	-260.76658	
55	0.54000000	333.49738	482.70137	-81.37204	348.70638	412.21706	-86.43103	208.82146	107.61270	-119.65107	148.34430	87.99482	-159.65667	306.60809	41.86354	-94.33523	351.78809	52.71719	-148.22071	658.31749	476.48424	-327.01170	722.28551	420.10666	-306.01896	778.71753	113.17330	-320.65978	736.94176	50.71419	-285.81781	897.23138	106.61950	-333.83351	927.52362	144.75285	-274.97099	304.94476	309.05094	-82.87158	281.36836	440.74812	-61.05168	227.39059	337.52659	-65.25334	651.51603	411.10165	-362.03992	689.25628	294.18842	-371.68194	455.20787	703.26806	-23.35447	423.95526	596.88261	-47.21003	360.03086	594.80178	-50.65022	345.03087	732.58445	-33.58337	315.77459	628.61970	-72.21822	583.96123	740.64009	-376.92318	641.85380	616.87720	-350.34598	484.25730	693.14971	-388.71249	536.73315	573.50941	-343.07483	547.72221	906.23588	-82.26201	342.84817	936.22186	-179.05168	565.57003	906.39968	-303.89503	352.11397	929.69083	-259.93808	440.68722	1378.53840	-185.27359	496.03988	1345.18765	-48.71398	469.76310	1351.80363	-325.34587	565.71762	1309.51029	-169.91950	561.52450	1311.56911	-211.43118	551.87925	1246.21864	3.33504	541.08973	1022.77684	14.51794	586.23880	1048.38884	56.09619	677.07430	1024.48342	34.47349	786.44377	938.34060	-9.01189	773.97741	918.17836	22.14040	451.65385	1254.23906	-400.53517	381.28108	1037.61315	-379.52141	394.67741	1059.46801	-441.21593	443.79356	969.88097	-476.69551	474.35741	846.85725	-488.48804	435.87066	842.76821	-505.43009	464.93729	819.11909	-97.33488	485.51274	819.27160	-303.81460	474.54527	846.42918	-116.18259	491.19160	834.69399	-261.51294	
